<svg width="24" height="26" viewBox="0 0 24 26" fill="none" xmlns="http://www.w3.org/2000/svg">
<path d="M21.375 2.75H18.5625V1.8125C18.5625 1.56386 18.4637 1.3254 18.2879 1.14959C18.1121 0.973772 17.8736 0.875 17.625 0.875C17.3764 0.875 17.1379 0.973772 16.9621 1.14959C16.7863 1.3254 16.6875 1.56386 16.6875 1.8125V2.75H7.3125V1.8125C7.3125 1.56386 7.21373 1.3254 7.03791 1.14959C6.8621 0.973772 6.62364 0.875 6.375 0.875C6.12636 0.875 5.8879 0.973772 5.71209 1.14959C5.53627 1.3254 5.4375 1.56386 5.4375 1.8125V2.75H2.625C2.12772 2.75 1.65081 2.94754 1.29917 3.29917C0.947544 3.65081 0.75 4.12772 0.75 4.625V23.375C0.75 23.8723 0.947544 24.3492 1.29917 24.7008C1.65081 25.0525 2.12772 25.25 2.625 25.25H21.375C21.8723 25.25 22.3492 25.0525 22.7008 24.7008C23.0525 24.3492 23.25 23.8723 23.25 23.375V4.625C23.25 4.12772 23.0525 3.65081 22.7008 3.29917C22.3492 2.94754 21.8723 2.75 21.375 2.75ZM5.4375 4.625V5.5625C5.4375 5.81114 5.53627 6.0496 5.71209 6.22541C5.8879 6.40123 6.12636 6.5 6.375 6.5C6.62364 6.5 6.8621 6.40123 7.03791 6.22541C7.21373 6.0496 7.3125 5.81114 7.3125 5.5625V4.625H16.6875V5.5625C16.6875 5.81114 16.7863 6.0496 16.9621 6.22541C17.1379 6.40123 17.3764 6.5 17.625 6.5C17.8736 6.5 18.1121 6.40123 18.2879 6.22541C18.4637 6.0496 18.5625 5.81114 18.5625 5.5625V4.625H21.375V8.375H2.625V4.625H5.4375ZM21.375 23.375H2.625V10.25H21.375V23.375ZM16.2188 16.8125C16.2188 17.0611 16.12 17.2996 15.9442 17.4754C15.7683 17.6512 15.5299 17.75 15.2812 17.75H12.9375V20.0938C12.9375 20.3424 12.8387 20.5808 12.6629 20.7567C12.4871 20.9325 12.2486 21.0312 12 21.0312C11.7514 21.0312 11.5129 20.9325 11.3371 20.7567C11.1613 20.5808 11.0625 20.3424 11.0625 20.0938V17.75H8.71875C8.47011 17.75 8.23165 17.6512 8.05584 17.4754C7.88002 17.2996 7.78125 17.0611 7.78125 16.8125C7.78125 16.5639 7.88002 16.3254 8.05584 16.1496C8.23165 15.9738 8.47011 15.875 8.71875 15.875H11.0625V13.5312C11.0625 13.2826 11.1613 13.0442 11.3371 12.8683C11.5129 12.6925 11.7514 12.5938 12 12.5938C12.2486 12.5938 12.4871 12.6925 12.6629 12.8683C12.8387 13.0442 12.9375 13.2826 12.9375 13.5312V15.875H15.2812C15.5299 15.875 15.7683 15.9738 15.9442 16.1496C16.12 16.3254 16.2188 16.5639 16.2188 16.8125Z" fill="#AAAAAA"/>
</svg>
