<svg width="30" height="30" viewBox="0 0 30 30" fill="none" xmlns="http://www.w3.org/2000/svg">
<path d="M15 0.65625C12.1631 0.65625 9.38986 1.4975 7.03104 3.07361C4.67223 4.64972 2.83375 6.88991 1.74811 9.51088C0.662465 12.1319 0.378411 15.0159 0.931868 17.7983C1.48532 20.5807 2.85143 23.1366 4.85744 25.1426C6.86345 27.1486 9.41926 28.5147 12.2017 29.0681C14.9841 29.6216 17.8681 29.3375 20.4891 28.2519C23.1101 27.1663 25.3503 25.3278 26.9264 22.969C28.5025 20.6101 29.3438 17.8369 29.3438 15C29.3363 11.1981 27.8227 7.55401 25.1344 4.86565C22.446 2.17728 18.8019 0.663683 15 0.65625ZM15 27.6562C12.4968 27.6562 10.0499 26.914 7.96857 25.5233C5.88726 24.1326 4.26508 22.156 3.30716 19.8433C2.34923 17.5307 2.0986 14.986 2.58694 12.5309C3.07529 10.0758 4.28068 7.82069 6.05069 6.05068C7.82069 4.28067 10.0758 3.07528 12.5309 2.58694C14.986 2.09859 17.5307 2.34923 19.8433 3.30715C22.156 4.26507 24.1326 5.88725 25.5233 7.96856C26.914 10.0499 27.6563 12.4968 27.6563 15C27.6525 18.3555 26.3179 21.5725 23.9452 23.9452C21.5725 26.3179 18.3555 27.6525 15 27.6562ZM20.0906 11.0906L16.1953 15L20.0906 18.9094C20.1682 18.9869 20.2297 19.079 20.2717 19.1804C20.3137 19.2817 20.3353 19.3903 20.3353 19.5C20.3353 19.6097 20.3137 19.7183 20.2717 19.8196C20.2297 19.921 20.1682 20.0131 20.0906 20.0906C20.0131 20.1682 19.921 20.2297 19.8196 20.2717C19.7183 20.3137 19.6097 20.3353 19.5 20.3353C19.3903 20.3353 19.2817 20.3137 19.1804 20.2717C19.079 20.2297 18.9869 20.1682 18.9094 20.0906L15 16.1953L11.0906 20.0906C10.934 20.2473 10.7215 20.3353 10.5 20.3353C10.2785 20.3353 10.066 20.2473 9.90938 20.0906C9.75274 19.934 9.66474 19.7215 9.66474 19.5C9.66474 19.2785 9.75274 19.066 9.90938 18.9094L13.8047 15L9.90938 11.0906C9.75274 10.934 9.66474 10.7215 9.66474 10.5C9.66474 10.2785 9.75274 10.066 9.90938 9.90937C10.066 9.75273 10.2785 9.66473 10.5 9.66473C10.7215 9.66473 10.934 9.75273 11.0906 9.90937L15 13.8047L18.9094 9.90937C19.066 9.75273 19.2785 9.66473 19.5 9.66473C19.7215 9.66473 19.934 9.75273 20.0906 9.90937C20.2473 10.066 20.3353 10.2785 20.3353 10.5C20.3353 10.7215 20.2473 10.934 20.0906 11.0906Z" fill="#808080"/>
</svg>
