<svg width="30" height="30" viewBox="0 0 30 30" fill="none" xmlns="http://www.w3.org/2000/svg">
<path fill-rule="evenodd" clip-rule="evenodd" d="M21.8182 4.61538H30V6.92308H27.2727V27.6923L24.5455 30H5.45455L2.72727 27.6923V6.92308H0V4.61538H8.18182V2.30769C8.18182 1.69565 8.46916 1.10868 8.98062 0.675907C9.49208 0.243131 10.1858 0 10.9091 0H19.0909C19.8142 0 20.5079 0.243131 21.0194 0.675907C21.5308 1.10868 21.8182 1.69565 21.8182 2.30769V4.61538ZM19.0909 2.30769H10.9091V4.61538H19.0909V2.30769ZM5.45455 27.6923H24.5455V6.92308H5.45455V27.6923ZM10.9091 9.23077H8.18182V25.3846H10.9091V9.23077ZM13.6364 9.23077H16.3636V25.3846H13.6364V9.23077ZM19.0909 9.23077H21.8182V25.3846H19.0909V9.23077Z" fill="#808080"/>
</svg>
