<svg width="31" height="32" viewBox="0 0 31 32" fill="none" xmlns="http://www.w3.org/2000/svg">
<path d="M3.5 30C2.675 30 1.9685 29.7065 1.3805 29.1195C0.7935 28.5315 0.5 27.825 0.5 27V6C0.5 5.175 0.7935 4.469 1.3805 3.882C1.9685 3.294 2.675 3 3.5 3H5V1.5C5 1.075 5.1435 0.7185 5.4305 0.4305C5.7185 0.1435 6.075 0 6.5 0C6.925 0 7.2815 0.1435 7.5695 0.4305C7.8565 0.7185 8 1.075 8 1.5V3H20V1.5C20 1.075 20.144 0.7185 20.432 0.4305C20.719 0.1435 21.075 0 21.5 0C21.925 0 22.281 0.1435 22.568 0.4305C22.856 0.7185 23 1.075 23 1.5V3H24.5C25.325 3 26.0315 3.294 26.6195 3.882C27.2065 4.469 27.5 5.175 27.5 6V15H24.5V12H3.5V27H14V30H3.5ZM3.5 9H24.5V6H3.5V9ZM29.1875 22.5L26 19.3125L27.0875 18.225C27.3625 17.95 27.7125 17.8125 28.1375 17.8125C28.5625 17.8125 28.9125 17.95 29.1875 18.225L30.275 19.3125C30.55 19.5875 30.6875 19.9375 30.6875 20.3625C30.6875 20.7875 30.55 21.1375 30.275 21.4125L29.1875 22.5ZM17 30.75V28.95C17 28.75 17.0375 28.5565 17.1125 28.3695C17.1875 28.1815 17.3 28.0125 17.45 27.8625L24.95 20.3625L28.1375 23.55L20.6375 31.05C20.4875 31.2 20.319 31.3125 20.132 31.3875C19.944 31.4625 19.75 31.5 19.55 31.5H17.75C17.55 31.5 17.375 31.425 17.225 31.275C17.075 31.125 17 30.95 17 30.75ZM3.5 9V6V9Z" fill="#808080"/>
</svg>
