<svg width="192" height="30" viewBox="0 0 192 30" fill="none" xmlns="http://www.w3.org/2000/svg">
<path d="M1.5 15.25L6.5 28.25L21.5 1.75M23.7294 5.75H34.5M18.5 15.75H34.5M12.5 25.75H34.5" stroke="white" stroke-width="3" stroke-linecap="round" stroke-linejoin="round"/>
<path d="M1.5 15.25L6.5 28.25L21.5 1.75M23.7294 5.75H34.5M18.5 15.75H34.5M12.5 25.75H34.5" stroke="black" stroke-width="3" stroke-linecap="round" stroke-linejoin="round"/>
<path d="M41.2656 8.46449V4.18182H59.7067V8.46449H53.0909V26H47.892V8.46449H41.2656ZM67.5476 26.3089C65.8288 26.3089 64.3516 25.9574 63.1158 25.2543C61.8871 24.544 60.9389 23.5568 60.2713 22.2926C59.6108 21.0213 59.2805 19.5476 59.2805 17.8714C59.2805 16.1882 59.6108 14.7145 60.2713 13.4503C60.9389 12.179 61.8871 11.1918 63.1158 10.4886C64.3516 9.77841 65.8288 9.4233 67.5476 9.4233C69.2663 9.4233 70.7401 9.77841 71.9688 10.4886C73.2045 11.1918 74.1527 12.179 74.8132 13.4503C75.4808 14.7145 75.8146 16.1882 75.8146 17.8714C75.8146 19.5476 75.4808 21.0213 74.8132 22.2926C74.1527 23.5568 73.2045 24.544 71.9688 25.2543C70.7401 25.9574 69.2663 26.3089 67.5476 26.3089ZM67.5795 22.3778C68.2045 22.3778 68.7337 22.1861 69.1669 21.8026C69.6001 21.419 69.9304 20.8864 70.1577 20.2045C70.392 19.5227 70.5092 18.7344 70.5092 17.8395C70.5092 16.9304 70.392 16.1349 70.1577 15.4531C69.9304 14.7713 69.6001 14.2386 69.1669 13.8551C68.7337 13.4716 68.2045 13.2798 67.5795 13.2798C66.9332 13.2798 66.3864 13.4716 65.9389 13.8551C65.4986 14.2386 65.1612 14.7713 64.9268 15.4531C64.6996 16.1349 64.5859 16.9304 64.5859 17.8395C64.5859 18.7344 64.6996 19.5227 64.9268 20.2045C65.1612 20.8864 65.4986 21.419 65.9389 21.8026C66.3864 22.1861 66.9332 22.3778 67.5795 22.3778ZM88.9556 15.1655V19.1818H78.8562V15.1655H88.9556ZM100.698 26H92.6337V4.18182H100.688C102.911 4.18182 104.825 4.61861 106.43 5.49219C108.042 6.35866 109.285 7.60866 110.159 9.24219C111.032 10.8686 111.469 12.8146 111.469 15.0803C111.469 17.353 111.032 19.3061 110.159 20.9396C109.292 22.5732 108.053 23.8267 106.441 24.7003C104.828 25.5668 102.914 26 100.698 26ZM97.9071 21.5043H100.496C101.718 21.5043 102.751 21.2983 103.596 20.8864C104.448 20.4673 105.091 19.7891 105.524 18.8516C105.965 17.907 106.185 16.6499 106.185 15.0803C106.185 13.5107 105.965 12.2607 105.524 11.3303C105.084 10.3928 104.434 9.71804 103.575 9.30611C102.722 8.88707 101.671 8.67756 100.421 8.67756H97.9071V21.5043ZM122.186 26.3089C120.468 26.3089 118.99 25.9574 117.754 25.2543C116.526 24.544 115.578 23.5568 114.91 22.2926C114.249 21.0213 113.919 19.5476 113.919 17.8714C113.919 16.1882 114.249 14.7145 114.91 13.4503C115.578 12.179 116.526 11.1918 117.754 10.4886C118.99 9.77841 120.468 9.4233 122.186 9.4233C123.905 9.4233 125.379 9.77841 126.607 10.4886C127.843 11.1918 128.791 12.179 129.452 13.4503C130.119 14.7145 130.453 16.1882 130.453 17.8714C130.453 19.5476 130.119 21.0213 129.452 22.2926C128.791 23.5568 127.843 24.544 126.607 25.2543C125.379 25.9574 123.905 26.3089 122.186 26.3089ZM122.218 22.3778C122.843 22.3778 123.372 22.1861 123.806 21.8026C124.239 21.419 124.569 20.8864 124.796 20.2045C125.031 19.5227 125.148 18.7344 125.148 17.8395C125.148 16.9304 125.031 16.1349 124.796 15.4531C124.569 14.7713 124.239 14.2386 123.806 13.8551C123.372 13.4716 122.843 13.2798 122.218 13.2798C121.572 13.2798 121.025 13.4716 120.578 13.8551C120.137 14.2386 119.8 14.7713 119.566 15.4531C119.338 16.1349 119.225 16.9304 119.225 17.8395C119.225 18.7344 119.338 19.5227 119.566 20.2045C119.8 20.8864 120.137 21.419 120.578 21.8026C121.025 22.1861 121.572 22.3778 122.218 22.3778ZM139.567 26V4.18182H144.841V21.7173H153.917V26H139.567ZM156.647 26V9.63636H161.857V26H156.647ZM159.257 7.7294C158.526 7.7294 157.897 7.48793 157.372 7.00497C156.846 6.51491 156.583 5.92543 156.583 5.23651C156.583 4.55469 156.846 3.9723 157.372 3.48935C157.897 2.99929 158.526 2.75426 159.257 2.75426C159.996 2.75426 160.625 2.99929 161.143 3.48935C161.669 3.9723 161.931 4.55469 161.931 5.23651C161.931 5.92543 161.669 6.51491 161.143 7.00497C160.625 7.48793 159.996 7.7294 159.257 7.7294ZM179.459 14.6328L174.676 14.7607C174.626 14.4197 174.491 14.1179 174.271 13.8551C174.051 13.5852 173.763 13.3757 173.408 13.2266C173.06 13.0703 172.655 12.9922 172.193 12.9922C171.59 12.9922 171.075 13.1129 170.649 13.3544C170.23 13.5959 170.024 13.9226 170.031 14.3345C170.024 14.6541 170.151 14.9311 170.414 15.1655C170.684 15.3999 171.164 15.5881 171.852 15.7301L175.006 16.3267C176.639 16.6392 177.854 17.1577 178.649 17.8821C179.452 18.6065 179.857 19.5653 179.864 20.7585C179.857 21.8807 179.523 22.8572 178.862 23.6882C178.209 24.5192 177.314 25.1655 176.178 25.6271C175.041 26.0817 173.742 26.3089 172.279 26.3089C169.942 26.3089 168.099 25.8295 166.749 24.8707C165.407 23.9048 164.64 22.6122 164.448 20.9929L169.594 20.8651C169.708 21.4616 170.002 21.9162 170.478 22.2287C170.954 22.5412 171.561 22.6974 172.3 22.6974C172.968 22.6974 173.511 22.5732 173.93 22.3246C174.349 22.076 174.562 21.7457 174.569 21.3338C174.562 20.9645 174.399 20.6697 174.079 20.4496C173.759 20.2223 173.259 20.0447 172.577 19.9169L169.722 19.3736C168.081 19.0753 166.86 18.5249 166.057 17.7223C165.254 16.9126 164.857 15.8828 164.864 14.6328C164.857 13.5391 165.148 12.6051 165.737 11.831C166.327 11.0497 167.165 10.4531 168.252 10.0412C169.338 9.62926 170.62 9.4233 172.097 9.4233C174.313 9.4233 176.061 9.88849 177.339 10.8189C178.617 11.7422 179.324 13.0135 179.459 14.6328ZM191.665 9.63636V13.4716H181.342V9.63636H191.665ZM183.505 5.71591H188.714V20.8544C188.714 21.174 188.764 21.4332 188.863 21.6321C188.97 21.8239 189.123 21.9624 189.321 22.0476C189.52 22.1257 189.758 22.1648 190.035 22.1648C190.234 22.1648 190.444 22.147 190.664 22.1115C190.891 22.0689 191.061 22.0334 191.175 22.005L191.963 25.7656C191.715 25.8366 191.363 25.9254 190.909 26.032C190.461 26.1385 189.925 26.206 189.3 26.2344C188.078 26.2912 187.031 26.1491 186.157 25.8082C185.291 25.4602 184.627 24.9205 184.165 24.1889C183.711 23.4574 183.49 22.5376 183.505 21.4297V5.71591Z" fill="black"/>
</svg>
